<svg width="37" height="37" viewBox="0 0 37 37" fill="none" xmlns="http://www.w3.org/2000/svg">
<circle cx="18.5" cy="18.5" r="18.5" fill="#FFBE19"/>
<path d="M27.25 25.47L25.6 25.86C25.23 25.95 24.94 26.23 24.86 26.6L24.51 28.07C24.32 28.87 23.3 29.12 22.77 28.49L19.78 25.05C19.54 24.77 19.67 24.33 20.03 24.24C21.8 23.81 23.39 22.82 24.56 21.41C24.75 21.18 25.09 21.15 25.3 21.36L27.52 23.58C28.28 24.34 28.01 25.29 27.25 25.47Z" fill="#404783"/>
<path d="M8.70001 25.47L10.35 25.86C10.72 25.95 11.01 26.23 11.09 26.6L11.44 28.07C11.63 28.87 12.65 29.12 13.18 28.49L16.17 25.05C16.41 24.77 16.28 24.33 15.92 24.24C14.15 23.81 12.56 22.82 11.39 21.41C11.2 21.18 10.86 21.15 10.65 21.36L8.43001 23.58C7.67001 24.34 7.94001 25.29 8.70001 25.47Z" fill="#404783"/>
<path d="M18 9C14.13 9 11 12.13 11 16C11 17.45 11.43 18.78 12.17 19.89C13.25 21.49 14.96 22.62 16.95 22.91C17.29 22.97 17.64 23 18 23C18.36 23 18.71 22.97 19.05 22.91C21.04 22.62 22.75 21.49 23.83 19.89C24.57 18.78 25 17.45 25 16C25 12.13 21.87 9 18 9ZM21.06 15.78L20.23 16.61C20.09 16.75 20.01 17.02 20.06 17.22L20.3 18.25C20.49 19.06 20.06 19.38 19.34 18.95L18.34 18.36C18.16 18.25 17.86 18.25 17.68 18.36L16.68 18.95C15.96 19.37 15.53 19.06 15.72 18.25L15.96 17.22C16 17.03 15.93 16.75 15.79 16.61L14.94 15.78C14.45 15.29 14.61 14.8 15.29 14.69L16.36 14.51C16.54 14.48 16.75 14.32 16.83 14.16L17.42 12.98C17.74 12.34 18.26 12.34 18.58 12.98L19.17 14.16C19.25 14.32 19.46 14.48 19.65 14.51L20.72 14.69C21.39 14.8 21.55 15.29 21.06 15.78Z" fill="#404783"/>
</svg>
